<?xml version="1.0" encoding="UTF-8"?>
<svg id="Layer_1" data-name="Layer 1" xmlns="http://www.w3.org/2000/svg" width="30" height="30" xmlns:xlink="http://www.w3.org/1999/xlink" viewBox="0 0 30 30">
  <defs>
    <style>
      .cls-1 {
        fill: url(#linear-gradient);
      }

      .cls-1, .cls-2 {
        stroke-width: 0px;
      }

      .cls-2 {
        fill: #fff;
        fill-rule: evenodd;
      }
    </style>
    <linearGradient id="linear-gradient" x1="15" y1="24.87" x2="15" y2="1.77" gradientUnits="userSpaceOnUse">
      <stop offset="0" stop-color="#27cd44"/>
      <stop offset="1" stop-color="#5ffb7c"/>
    </linearGradient>
  </defs>
  <circle class="cls-1" cx="15" cy="15" r="11.55"/>
  <g id="WA_Logo" data-name="WA Logo">
    <path class="cls-2" d="M20.56,9.59c-1.38-1.38-3.22-2.15-5.18-2.15-4.04,0-7.33,3.29-7.33,7.32,0,1.29.34,2.55.98,3.66l-1.04,3.8,3.88-1.02c1.07.58,2.28.89,3.5.89h0c4.04,0,7.33-3.29,7.33-7.32,0-1.96-.76-3.8-2.14-5.18ZM15.37,20.86h0c-1.09,0-2.16-.29-3.1-.85l-.22-.13-2.3.6.62-2.25-.14-.23c-.61-.97-.93-2.09-.93-3.24,0-3.36,2.73-6.09,6.09-6.09,1.63,0,3.16.63,4.31,1.79,1.15,1.15,1.78,2.68,1.78,4.31,0,3.36-2.73,6.09-6.09,6.09ZM18.71,16.3c-.18-.09-1.08-.53-1.25-.6-.17-.06-.29-.09-.41.09-.12.18-.47.6-.58.72-.11.12-.21.14-.4.05-.18-.09-.77-.28-1.47-.91-.54-.49-.91-1.08-1.02-1.27s-.01-.28.08-.37c.08-.08.18-.21.27-.32.09-.11.12-.18.18-.31s.03-.23-.02-.32-.41-.99-.56-1.36c-.15-.36-.3-.31-.41-.31-.11,0-.23,0-.35,0s-.32.05-.49.23c-.17.18-.64.63-.64,1.53s.66,1.77.75,1.89c.09.12,1.29,1.97,3.13,2.76.44.19.78.3,1.04.39.44.14.84.12,1.15.07.35-.05,1.08-.44,1.24-.87.15-.43.15-.79.11-.87-.05-.08-.17-.12-.35-.21Z"/>
  </g>
</svg>