<?xml version="1.0" encoding="UTF-8"?>
<svg id="Layer_1" data-name="Layer 1" xmlns="http://www.w3.org/2000/svg" viewBox="0 0 40 35">
  <defs>
    <style>
      .cls-1 {
        fill: #0a66c2;
      }
    </style>
  </defs>
  <path class="cls-1" d="M38.04,31.9c.35,0,.63-.27.63-.62,0-.01,0-.03,0-.04,0-.47-.28-.69-.86-.69h-.94v2.46h.35v-1.07h.44s.67,1.07.67,1.07h.38l-.73-1.1h.05ZM37.63,31.65h-.41v-.83h.52c.27,0,.57.04.57.4,0,.4-.31.44-.69.44Z"/>
  <path class="cls-1" d="M31.32,0h0S2.5,0,2.5,0C1.13-.01.02,1.08,0,2.44v28.94c.02,1.36,1.13,2.45,2.5,2.44h28.82c1.37.02,2.49-1.07,2.51-2.44V2.44C33.8,1.07,32.68-.02,31.32,0ZM10.03,28.82h-5.02V12.68h5.02v16.14ZM7.53,10.47c-1.61,0-2.91-1.3-2.91-2.91s1.3-2.91,2.91-2.91,2.91,1.3,2.91,2.91-1.3,2.91-2.91,2.91ZM28.82,28.82h-5.01v-7.85c0-1.87-.03-4.28-2.61-4.28s-3.01,2.04-3.01,4.14v7.98h-5.01V12.68h4.81v2.21h.07c.98-1.68,2.81-2.68,4.75-2.61,5.08,0,6.02,3.34,6.02,7.69v8.85Z"/>
  <path class="cls-1" d="M37.72,29.45h-.04c-1.27.01-2.3,1.05-2.28,2.33s1.05,2.3,2.33,2.28c1.27-.01,2.3-1.05,2.28-2.33-.01-1.26-1.03-2.27-2.28-2.28ZM37.78,33.8h-.05c-1.12.02-2.04-.87-2.06-1.99-.02-1.12.87-2.04,1.99-2.06,1.12-.02,2.04.87,2.06,1.99v.03c.02,1.09-.84,2-1.94,2.02Z"/>
</svg>