<?xml version="1.0" encoding="UTF-8"?>
<svg id="Layer_1" data-name="Layer 1" xmlns="http://www.w3.org/2000/svg" width="30" height="30" viewBox="0 0 30 30">
  <defs>
    <style>
      .cls-1 {
        fill: #fff;
      }

      .cls-1, .cls-2 {
        stroke-width: 0px;
      }

      .cls-2 {
        fill: #0866ff;
      }
    </style>
  </defs>
  <g id="Logo">
    <path id="Initiator" class="cls-2" d="M27.25,15c0-6.77-5.48-12.25-12.25-12.25S2.75,8.23,2.75,15c0,5.74,3.96,10.57,9.29,11.89v-8.15h-2.53v-3.74h2.53v-1.61c0-4.17,1.89-6.1,5.98-6.1.78,0,2.12.15,2.66.3v3.39c-.29-.03-.79-.05-1.42-.05-2.01,0-2.78.76-2.78,2.74v1.32h4l-.69,3.74h-3.31v8.42c6.07-.73,10.77-5.9,10.77-12.16Z"/>
    <path id="F" class="cls-1" d="M19.8,18.74l.69-3.74h-4v-1.32c0-1.98.78-2.74,2.78-2.74.62,0,1.13.02,1.42.05v-3.39c-.55-.15-1.89-.3-2.66-.3-4.09,0-5.98,1.93-5.98,6.1v1.61h-2.53v3.74h2.53v8.15c.95.24,1.94.36,2.96.36.5,0,1-.03,1.48-.09v-8.42h3.31Z"/>
  </g>
</svg>