<?xml version="1.0" encoding="UTF-8"?>
<svg id="Layer_1" data-name="Layer 1" xmlns="http://www.w3.org/2000/svg" width="40" height="40" xmlns:xlink="http://www.w3.org/1999/xlink" viewBox="0 0 40 40">
  <defs>
    <style>
      .cls-1 {
        fill: url(#Degradado_sin_nombre_3);
      }

      .cls-1, .cls-2, .cls-3 {
        stroke-width: 0px;
      }

      .cls-2 {
        fill: url(#Degradado_sin_nombre_3-3);
      }

      .cls-3 {
        fill: url(#Degradado_sin_nombre_3-2);
      }
    </style>
    <linearGradient id="Degradado_sin_nombre_3" data-name="Degradado sin nombre 3" x1="-3.82" y1="43.82" x2="42.74" y2="-2.74" gradientUnits="userSpaceOnUse">
      <stop offset="0" stop-color="#ffe185"/>
      <stop offset=".21" stop-color="#ffbb36"/>
      <stop offset=".38" stop-color="#ff5176"/>
      <stop offset=".52" stop-color="#f63395"/>
      <stop offset=".74" stop-color="#a436d2"/>
      <stop offset="1" stop-color="#5f4eed"/>
    </linearGradient>
    <linearGradient id="Degradado_sin_nombre_3-2" data-name="Degradado sin nombre 3" x1="-3.82" y1="43.82" x2="42.74" y2="-2.74" xlink:href="#Degradado_sin_nombre_3"/>
    <linearGradient id="Degradado_sin_nombre_3-3" data-name="Degradado sin nombre 3" x1="-3.82" y1="43.82" x2="42.74" y2="-2.74" xlink:href="#Degradado_sin_nombre_3"/>
  </defs>
  <path class="cls-1" d="M20,7.7c4.01,0,4.48.02,6.06.09,1.46.07,2.26.31,2.79.52.7.27,1.2.6,1.72,1.12.52.52.85,1.02,1.12,1.72.21.53.45,1.32.52,2.79.07,1.58.09,2.06.09,6.06s-.02,4.48-.09,6.06c-.07,1.46-.31,2.26-.52,2.79-.27.7-.6,1.2-1.12,1.72-.52.52-1.02.85-1.72,1.12-.53.21-1.32.45-2.79.52-1.58.07-2.06.09-6.06.09s-4.48-.02-6.06-.09c-1.46-.07-2.26-.31-2.79-.52-.7-.27-1.2-.6-1.72-1.12-.52-.52-.85-1.02-1.12-1.72-.21-.53-.45-1.32-.52-2.79-.07-1.58-.09-2.06-.09-6.06s.02-4.48.09-6.06c.07-1.46.31-2.26.52-2.79.27-.7.6-1.2,1.12-1.72.52-.52,1.02-.85,1.72-1.12.53-.21,1.32-.45,2.79-.52,1.58-.07,2.06-.09,6.06-.09M20,5c-4.07,0-4.58.02-6.18.09-1.6.07-2.69.33-3.64.7-.99.38-1.82.9-2.66,1.73-.83.83-1.35,1.67-1.73,2.66-.37.95-.62,2.04-.7,3.64-.07,1.6-.09,2.11-.09,6.18s.02,4.58.09,6.18c.07,1.6.33,2.69.7,3.64.38.99.9,1.82,1.73,2.66.83.83,1.67,1.35,2.66,1.73.95.37,2.04.62,3.64.7,1.6.07,2.11.09,6.18.09s4.58-.02,6.18-.09c1.6-.07,2.69-.33,3.64-.7.99-.38,1.82-.9,2.66-1.73.83-.83,1.35-1.67,1.73-2.66.37-.95.62-2.04.7-3.64.07-1.6.09-2.11.09-6.18s-.02-4.58-.09-6.18c-.07-1.6-.33-2.69-.7-3.64-.38-.99-.9-1.82-1.73-2.66-.83-.83-1.67-1.35-2.66-1.73-.95-.37-2.04-.62-3.64-.7-1.6-.07-2.11-.09-6.18-.09h0Z"/>
  <path class="cls-3" d="M20,12.3c-4.25,0-7.7,3.45-7.7,7.7s3.45,7.7,7.7,7.7,7.7-3.45,7.7-7.7-3.45-7.7-7.7-7.7ZM20,25c-2.76,0-5-2.24-5-5s2.24-5,5-5,5,2.24,5,5-2.24,5-5,5Z"/>
  <circle class="cls-2" cx="28.01" cy="11.99" r="1.8"/>
</svg>