<?xml version="1.0" encoding="UTF-8"?>
<svg id="Layer_1" data-name="Layer 1" xmlns="http://www.w3.org/2000/svg" width="30" height="30" viewBox="0 0 30 30">
  <defs>
    <style>
      .cls-1 {
        fill: red;
      }

      .cls-1, .cls-2 {
        stroke-width: 0px;
      }

      .cls-2 {
        fill: #fff;
      }
    </style>
  </defs>
  <path class="cls-1" d="M26.93,9.01c-.29-1.07-1.13-1.91-2.2-2.2-1.94-.52-9.73-.52-9.73-.52,0,0-7.79,0-9.73.52-1.07.29-1.91,1.13-2.2,2.2-.52,1.94-.52,5.99-.52,5.99,0,0,0,4.05.52,5.99.29,1.07,1.13,1.91,2.2,2.2,1.94.52,9.73.52,9.73.52,0,0,7.79,0,9.73-.52,1.07-.29,1.91-1.13,2.2-2.2.52-1.94.52-5.99.52-5.99,0,0,0-4.05-.52-5.99Z"/>
  <polygon class="cls-2" points="12.51 18.73 18.98 15 12.51 11.27 12.51 18.73"/>
</svg>