<svg xmlns="http://www.w3.org/2000/svg" width="226.77" height="291.37" viewBox="0 0 226.77 291.37">
  <g id="t50-logo-only" transform="translate(-307.56 -118.8)">
    <g id="Group_14402" data-name="Group 14402">
      <path id="Path_18824" data-name="Path 18824" d="M417.15,276.88c-4.31-.61-70.09-17.94-71.79-13.23s70.52,25.97,70.52,25.97" fill="#49176d"/>
      <path id="Path_18825" data-name="Path 18825" d="M403.41,277.03c-7.06-6.73-13.76-15.56-17.34-17.04s4.26,9.91,6.34,12.59" fill="#49176d"/>
      <path id="Path_18826" data-name="Path 18826" d="M381.4,278.82c-4.25,2.34-12.76,5.71-10.86,6.84,1.97,1.17,13.86-2.28,19.97-4.42" fill="#49176d"/>
    </g>
    <g id="Group_14403" data-name="Group 14403">
      <path id="Path_18827" data-name="Path 18827" d="M424.08,260.39c2.58-.91,61.95-16.24,62.89-12.87,1.37,4.91-59.13,25.84-63.32,27.24" fill="#49176d"/>
      <path id="Path_18828" data-name="Path 18828" d="M434.53,258.24s14.8-18.97,16.77-17.71-6.67,15.05-6.67,15.05" fill="#49176d"/>
    </g>
    <g id="Group_14405" data-name="Group 14405">
      <g id="Group_14404" data-name="Group 14404">
        <path id="Path_18829" data-name="Path 18829" d="M468.21,189.39c-31.33,4.15-30.57,35.69-30.57,35.69C461.75,218.15,466.82,207.24,468.21,189.39Z" fill="#633169"/>
        <path id="Path_18830" data-name="Path 18830" d="M436.07,275.72c5.29,15.72,17.96,21.17,37.46,23.28C466.03,270.99,436.07,275.72,436.07,275.72Z" fill="#21b7e9"/>
        <path id="Path_18831" data-name="Path 18831" d="M494.75,272.6c13.08,23.61,35.02,16.13,35.02,16.13C520.49,273.38,511.66,270.55,494.75,272.6Z" fill="#633169"/>
        <path id="Path_18832" data-name="Path 18832" d="M321.11,321.06c27.48,7.24,37.19-11.8,37.19-11.8C337.17,305.75,332.34,309.35,321.11,321.06Z" fill="#009690"/>
        <path id="Path_18833" data-name="Path 18833" d="M490.07,277.26c-10.71-12.54-23.16-14.1-35.98-9.23C466.27,289.88,490.07,277.26,490.07,277.26Z" fill="#881798"/>
        <path id="Path_18834" data-name="Path 18834" d="M453.68,301.14c-1.5,15.73,15.56,21.31,15.56,21.31C467.95,310.29,463.69,304.69,453.68,301.14Z" fill="#881798"/>
        <path id="Path_18835" data-name="Path 18835" d="M480.59,295.69c10.88,16.12,34.76,9.01,34.76,9.01C506.3,291.36,492.55,292.88,480.59,295.69Z" fill="#009690"/>
        <path id="Path_18836" data-name="Path 18836" d="M355.4,225.95c-1.43-23.47-27.79-22.02-27.79-22.02C332.59,220.69,340.67,223.28,355.4,225.95Z" fill="#009690"/>
        <path id="Path_18837" data-name="Path 18837" d="M344.06,256.1c-7.08-13.28-21.15-16.45-33.82-15.12C320.38,260.21,344.06,256.1,344.06,256.1Z" fill="#881798"/>
        <path id="Path_18838" data-name="Path 18838" d="M351.15,151.84c-3.22,20.96,4.37,35.41,22.82,43.7C380.47,163.87,351.15,151.84,351.15,151.84Z" fill="#881798"/>
        <path id="Path_18839" data-name="Path 18839" d="M398.51,158.81c6.89-13.15.41-27.79-9.62-34.21C377.62,145.33,398.51,158.81,398.51,158.81Z" fill="#ee7003"/>
        <path id="Path_18840" data-name="Path 18840" d="M436.2,309c-1.99,10.27,1.75,14.85,9.18,18.53C449.89,315.4,436.2,309,436.2,309Z" fill="#d50065"/>
        <path id="Path_18841" data-name="Path 18841" d="M438.35,118.8c-12.61,8.88-12.48,19.08-8.16,29.84C450.12,135.56,438.35,118.8,438.35,118.8Z" fill="#d50065"/>
        <path id="Path_18842" data-name="Path 18842" d="M457.5,186.64c15.12-11.54,19.3-18.89,14.45-33.79C448.51,165.56,457.5,186.64,457.5,186.64Z" fill="#d50065"/>
        <path id="Path_18843" data-name="Path 18843" d="M454.34,231.37c29.39.51,34.26-26.89,34.26-26.89C469.42,204.62,460.25,216.11,454.34,231.37Z" fill="#ee7003"/>
        <path id="Path_18844" data-name="Path 18844" d="M385.57,188.41s.06,27.52,27.09,33.23C414.97,193.07,385.57,188.41,385.57,188.41Z" fill="#009ee4"/>
        <path id="Path_18845" data-name="Path 18845" d="M331.99,301.14c13.26,5.65,34.73,5.21,43.45-6.22C350.43,280.93,331.99,301.14,331.99,301.14Z" fill="#881798"/>
        <path id="Path_18846" data-name="Path 18846" d="M360.83,328.31c13.75-5.94,16.47-12.4,17.35-23.61C358.12,309.11,360.83,328.31,360.83,328.31Z" fill="#d50065"/>
        <path id="Path_18847" data-name="Path 18847" d="M311.84,261.99c11.26,11.9,26.64,2.61,26.64,2.61C328.46,257.44,321.86,258.12,311.84,261.99Z" fill="#009ee4"/>
        <path id="Path_18848" data-name="Path 18848" d="M515.36,269.83c8.04,4.78,12.53,4.08,18.97.98C524.76,262.55,515.36,269.83,515.36,269.83Z" fill="#ee7003"/>
        <path id="Path_18849" data-name="Path 18849" d="M468.21,304.43c6.99,9.18,13.16,10.24,23.42,9.28C485.24,299.74,468.21,304.43,468.21,304.43Z" fill="#ee7003"/>
        <path id="Path_18850" data-name="Path 18850" d="M449.95,308.59c.03-11.86-8.97-17.68-18.33-19.18C433.34,307.08,449.95,308.59,449.95,308.59Z" fill="#009690"/>
        <path id="Path_18851" data-name="Path 18851" d="M431.68,252.89c12.6-5.62,14.94-15.75,12.74-25.41C426.97,235.16,431.68,252.89,431.68,252.89Z" fill="#009690"/>
        <path id="Path_18852" data-name="Path 18852" d="M357.22,198.38c8.43,14.27,25.36,11.64,25.36,11.64C375.97,198.36,367.36,196.32,357.22,198.38Z" fill="#009690"/>
        <path id="Path_18853" data-name="Path 18853" d="M405.04,297.71c-14.86.89-19.27,6.97-23.16,19.18C402.55,319.84,405.04,297.71,405.04,297.71Z" fill="#80c342"/>
        <path id="Path_18854" data-name="Path 18854" d="M335.51,292.74c-16.86-9-27.55,1.18-27.55,1.18C320.76,301.18,327.18,297.51,335.51,292.74Z" fill="#21b7e9"/>
        <path id="Path_18855" data-name="Path 18855" d="M467.48,184.56s19.35,7.62,32.9-12.11C475.43,165.62,467.48,184.56,467.48,184.56Z" fill="#ee7003"/>
        <path id="Path_18856" data-name="Path 18856" d="M498.73,247.71c10.81,3.79,16.12,1.74,23.31-3.79C508.67,236.21,498.73,247.71,498.73,247.71Z" fill="#80c342"/>
        <path id="Path_18857" data-name="Path 18857" d="M396.93,248.59c-2.95,12.99.82,17.85,9.49,23.32C414.13,254.98,396.93,248.59,396.93,248.59Z" fill="#881798"/>
        <path id="Path_18858" data-name="Path 18858" d="M398.87,184.62c2.15-27.2-23.55-29.7-23.55-29.7C377.64,174.58,384.87,180.07,398.87,184.62Z" fill="#633169"/>
        <path id="Path_18859" data-name="Path 18859" d="M394.45,331.96c14.2-6.82,9.45-19.26,9.45-19.26C394.48,319.3,393.4,324.22,394.45,331.96Z" fill="#21b7e9"/>
        <path id="Path_18860" data-name="Path 18860" d="M497.66,287.67c-9.21-9.52-21.18-1.78-21.18-1.78C484.69,291.48,489.86,290.87,497.66,287.67Z" fill="#80c342"/>
        <path id="Path_18861" data-name="Path 18861" d="M490.01,152.63c-8.86,2.64-12.14,9.67-11.4,16.8C491.59,166.43,490.01,152.63,490.01,152.63Z" fill="#12a639"/>
        <path id="Path_18862" data-name="Path 18862" d="M522.07,259.57c-13.26-8.73-24.1-7.47-43.55,1.35C504.76,275.05,522.07,259.57,522.07,259.57Z" fill="#d50065"/>
        <path id="Path_18863" data-name="Path 18863" d="M451.05,172.45c-10.87,6.23-12.34,11.84-11.65,21.1C455.55,187.94,451.05,172.45,451.05,172.45Z" fill="#881798"/>
        <path id="Path_18864" data-name="Path 18864" d="M435,191.44c-14.92,13.6-17.13,23.13-12.86,38.2C442.69,216.51,435,191.44,435,191.44Z" fill="#12a639"/>
        <path id="Path_18865" data-name="Path 18865" d="M502.62,185.74c-15.12-.28-21.1,4.75-28.06,15.04C494.07,204.94,502.62,185.74,502.62,185.74Z" fill="#009690"/>
        <path id="Path_18866" data-name="Path 18866" d="M489.38,220.8c18.15-1.86,16.9-15.8,16.9-15.8C493.56,208.3,490.75,212.79,489.38,220.8Z" fill="#d50065"/>
        <path id="Path_18867" data-name="Path 18867" d="M517.37,214.93c-26.67,3.66-27.58,29.06-27.58,29.06C509.03,237.78,517.35,227.77,517.37,214.93Z" fill="#009ee4"/>
        <path id="Path_18868" data-name="Path 18868" d="M381.82,297.33c9.5,1.72,15.33-2.33,16.5-8.8C390.93,287.43,384.97,288.31,381.82,297.33Z" fill="#ee7003"/>
        <path id="Path_18869" data-name="Path 18869" d="M354.93,249.97c5.67,15.75,23.58,13.45,23.58,13.45C371.29,250.36,366.91,249.9,354.93,249.97Z" fill="#d50065"/>
        <path id="Path_18870" data-name="Path 18870" d="M360.42,280.35c-21.96-17.16-41.08-.78-41.08-.78C335.27,288.8,347.93,288.57,360.42,280.35Z" fill="#633169"/>
        <path id="Path_18871" data-name="Path 18871" d="M331.1,222.77c-6.94-13.12-23.54-10.19-23.54-10.19C313.5,222.73,322.21,225.11,331.1,222.77Z" fill="#d50065"/>
        <path id="Path_18872" data-name="Path 18872" d="M361.53,213.22c-5.13,27.27,13.43,37.5,24.91,42.61C390.23,237.12,378.72,217.56,361.53,213.22Z" fill="#009ee4"/>
        <path id="Path_18873" data-name="Path 18873" d="M457.1,247.61c19.39-.29,24.04-3.6,29.97-16.23C460.62,227.03,457.1,247.61,457.1,247.61Z" fill="#633169"/>
        <path id="Path_18874" data-name="Path 18874" d="M356.18,207.13c-3.28-27.42-29.33-33.44-29.33-33.44C329.05,195.86,337.57,200.32,356.18,207.13Z" fill="#80c342"/>
        <path id="Path_18875" data-name="Path 18875" d="M382.33,215.21c3.46,28.38,27.66,28.84,27.66,28.84C407.87,226.62,398.27,219.25,382.33,215.21Z" fill="#12a639"/>
        <path id="Path_18876" data-name="Path 18876" d="M417.68,200.79c16.48-25.44,14.18-43.38.49-64.44C388.78,167.84,417.68,200.79,417.68,200.79Z" fill="#009690"/>
        <path id="Path_18877" data-name="Path 18877" d="M434.72,175.35c31.11-11.58,26.69-39.01,26.69-39.01C438.56,144.03,435.91,156.81,434.72,175.35Z" fill="#21b7e9"/>
        <path id="Path_18878" data-name="Path 18878" d="M362.67,245.35c-7.89-15.87-22.1-18.28-37.22-17.73C334.84,247.87,362.67,245.35,362.67,245.35Z" fill="#ee7003"/>
      </g>
      <path id="Path_18879" data-name="Path 18879" d="M457.69,203.77c.24.06.48.12.71.17C458.17,203.88,457.93,203.83,457.69,203.77Z" fill="#881798"/>
    </g>
    <g id="Group_14408" data-name="Group 14408">
      <g id="Group_14406" data-name="Group 14406">
        <path id="Path_18880" data-name="Path 18880" d="M460.32,346.36c-2.42,0-2.68-.36-3.04,2.51l-1.61,12.61.09.09c3.4-2.15,8.95-5.1,14.67-5.1,15.74,0,18.16,9.75,18.16,16.73,0,10.2-5.9,19.14-21.38,19.14-15.83,0-19.05-7.96-19.05-10.82,0-3.85,3.94-6.35,6.71-6.35,2.59,0,3.67,1.43,4.38,3.4,2.5,7.69,4.47,9.84,7.87,9.84,4.83,0,6.53-5.19,6.53-13.6,0-8.14-3.4-11.99-9.21-11.99-3.22,0-6.89,1.25-10.29,4.92l-3.49-2.59,2.68-29.25.54-.71h17.98c8.95,0,12.17.18,14.31-.81l1.16.81-3.85,11.18H460.32Z" fill="#881798"/>
        <path id="Path_18881" data-name="Path 18881" d="M534.33,363.27c0,15.3-5.19,29.07-21.47,29.07-16.19,0-21.47-14.04-21.47-29.07,0-15.39,5.19-29.07,21.56-29.07C528.87,334.2,534.33,348.06,534.33,363.27Zm-28.36,0c0,9.04.36,25.14,6.98,25.14,6.44,0,6.71-16.1,6.71-25.14s-.09-25.14-6.98-25.14C505.97,338.13,505.97,354.24,505.97,363.27Z" fill="#881798"/>
      </g>
      <g id="Group_14407" data-name="Group 14407">
        <path id="Path_18882" data-name="Path 18882" d="M463.7,409.85v-.72c1.59-.06,1.77-.16,1.77-1.11v-2.9a2.976,2.976,0,0,0-.42-1.33c-.7-1.31-2.22-4.21-2.74-5.1-.48-.83-.6-.99-1.57-1.07v-.73h6.16v.73l-1.01.12c-.44.04-.36.32-.22.62.64,1.39,1.89,3.87,2.46,4.95h.06c.83-1.65,1.61-3.5,2.13-4.81.18-.5.06-.71-.3-.75l-.97-.12v-.73h4.37v.73c-.99.1-1.31.26-1.73.97-.95,1.57-1.75,3.26-2.6,5.03a2.851,2.851,0,0,0-.36,1.37v3.04c0,.95.16,1.05,1.77,1.11v.72h-6.8Z" fill="#881798"/>
        <path id="Path_18883" data-name="Path 18883" d="M475.04,398.69c0-.93-.16-1.03-1.45-1.09v-.72h10.19v3.52h-.71c-.64-1.85-.97-2.64-2.86-2.64h-1.27c-.52,0-.66.14-.66.7v4.17h1.59c1.13,0,1.41-.34,1.71-1.73h.71v4.49h-.71c-.3-1.39-.58-1.81-1.71-1.81h-1.59v4.05c0,1.17.1,1.35,2.21,1.35,2.2,0,2.52-1.13,3.24-3.08h.71l-.28,3.95H473.59v-.72c1.29-.06,1.45-.16,1.45-1.11Z" fill="#881798"/>
        <path id="Path_18884" data-name="Path 18884" d="M492.26,409.85v-.72l1.13-.12c.36-.04.4-.3.28-.66-.34-1.07-.75-2.34-.99-3.08h-3.69c-.32,1.09-.68,2.16-.89,3.08-.12.42-.08.64.32.68l1.13.1v.72h-4.27v-.72c.97-.06,1.17-.2,1.47-.95.95-2.22,2.8-7.87,3.91-11.38h2.56c1.03,3.24,2.92,8.98,3.85,11.46.28.72.56.85,1.51.87v.72h-6.32Zm-1.41-10.49h-.06c-.36,1.15-1.05,3.52-1.51,5.03h3.1C491.96,403.14,491.2,400.61,490.85,399.36Z" fill="#881798"/>
        <path id="Path_18885" data-name="Path 18885" d="M503.76,408.02c0,.95.16,1.05,1.45,1.11v.72h-6.16v-.72c1.29-.06,1.45-.16,1.45-1.11v-9.34c0-.93-.16-1.03-1.45-1.09v-.72h6.54c2.24,0,4.45.26,4.45,3.2,0,1.89-1.31,2.9-3.16,3.14v.1a3.69,3.69,0,0,1,3.04,3.24c.28,1.47.6,2.52,1.87,2.58v.72h-1.53c-2.07,0-3-.5-3.48-1.91a25.558,25.558,0,0,1-.56-2.64c-.26-1.11-.73-1.43-1.77-1.43h-.69v4.15Zm0-5.02h.71c1.99,0,2.24-1.29,2.24-2.68,0-1.77-.85-2.56-2.03-2.56-.89,0-.93.18-.93.7V403Z" fill="#881798"/>
        <path id="Path_18886" data-name="Path 18886" d="M520.26,400.51c-.56-2.22-1.71-3.08-2.9-3.08a1.811,1.811,0,0,0-1.87,1.93c0,1.41,1.31,1.93,2.82,2.64,1.69.77,3.44,1.57,3.44,4.05,0,1.95-1.13,4.11-4.95,4.11a6.376,6.376,0,0,1-3.99-1.11l-.26-3.46h.7c.75,2.38,2.09,3.67,3.52,3.67a1.814,1.814,0,0,0,1.99-1.99c0-1.11-.58-1.79-2.32-2.56-2.22-.99-3.77-1.89-3.77-4.21,0-2.2,1.33-3.95,4.71-3.95a7.44,7.44,0,0,1,3.58.83v3.12h-.7Z" fill="#881798"/>
      </g>
    </g>
    <path id="Path_18887" data-name="Path 18887" d="M424.95,241.91c0-3.64-.85-8.66-5.3-9.16-4.45.5-5.3,5.51-5.3,9.16l-8.31,168.26a21.612,21.612,0,0,0,8.63-5.53,6.843,6.843,0,0,1,9.96,0,21.612,21.612,0,0,0,8.63,5.53Z" fill="#49176d"/>
  </g>
</svg>
