<?xml version="1.0" encoding="utf-8"?>
<!-- Generator: Adobe Illustrator 17.1.0, SVG Export Plug-In . SVG Version: 6.00 Build 0)  -->
<!DOCTYPE svg PUBLIC "-//W3C//DTD SVG 1.1//EN" "http://www.w3.org/Graphics/SVG/1.1/DTD/svg11.dtd">
<svg version="1.1" id="Layer_1" xmlns="http://www.w3.org/2000/svg" xmlns:xlink="http://www.w3.org/1999/xlink" x="0px" y="0px" width="20px" height="20px"
	 viewBox="0 0 20 20" enable-background="new 0 0 20 20" xml:space="preserve">
<g>
	<path fill="#FFFFFF" d="M15.8,7.9c0-4.4-3.5-7.9-7.9-7.9S0,3.5,0,7.9s3.5,7.9,7.9,7.9c1.4,0,2.8-0.4,4-1.1l5.3,5.3
		c1.5,0,2.8-1.3,2.8-2.8l-5.3-5.4C15.3,10.6,15.8,9.3,15.8,7.9z M2.8,7.9c0-2.7,2.2-5.1,5.1-5.1s5.1,2.2,5.1,5.1s-2.4,4.9-5.1,4.9
		S2.8,10.6,2.8,7.9z"/>
</g>
</svg>
