<svg xmlns="http://www.w3.org/2000/svg" width="29.997" height="26.567" viewBox="0 0 29.997 26.567">
  <g id="icon-alert-red" transform="translate(0 0)">
    <path id="Path_18706" data-name="Path 18706" d="M17.42,1.61,30.2,23.738a2.22,2.22,0,0,1-1.922,3.329H2.722A2.22,2.22,0,0,1,.8,23.738L13.576,1.61A2.22,2.22,0,0,1,17.42,1.61Z" transform="translate(-0.5 -0.5)" fill="#e91111"/>
    <path id="Path_18706_-_Outline" data-name="Path 18706 - Outline" d="M15.5,1.5a1.2,1.2,0,0,0-1.056.61L1.666,24.238a1.22,1.22,0,0,0,1.056,1.829H28.274a1.22,1.22,0,0,0,1.056-1.829L16.554,2.11A1.2,1.2,0,0,0,15.5,1.5m0-1A2.2,2.2,0,0,1,17.42,1.61L30.2,23.738a2.22,2.22,0,0,1-1.922,3.329H2.722A2.22,2.22,0,0,1,.8,23.738L13.576,1.61A2.2,2.2,0,0,1,15.5.5Z" transform="translate(-0.5 -0.5)" fill="#49176d"/>
    <path id="Path_18707" data-name="Path 18707" d="M306.518,420.576A1.477,1.477,0,1,0,308,422.053a1.477,1.477,0,0,0-1.477-1.477" transform="translate(-291.52 -401.925)" fill="#fffdf5"/>
    <path id="Path_18708" data-name="Path 18708" d="M306.518,187.243a1.477,1.477,0,0,0-1.467,1.3l-.01.172v5.909a1.477,1.477,0,0,0,2.944.172l.01-.172V188.72a1.477,1.477,0,0,0-1.477-1.477" transform="translate(-291.52 -178.946)" fill="#fff"/>
  </g>
</svg>
